<mxfile host="app.diagrams.net" modified="2023-09-04T04:51:05.777Z" agent="Mozilla/5.0 (Windows NT 10.0; Win64; x64) AppleWebKit/537.36 (KHTML, like Gecko) Chrome/116.0.0.0 Safari/537.36 Edg/116.0.1938.69" etag="Rq4uRPqVOMBSOaWUsL_9" version="21.7.2" type="device">
  <diagram name="Page-1" id="hWxOd66sKt3e4cvJsgsg">
    <mxGraphModel dx="3328" dy="792" grid="1" gridSize="10" guides="1" tooltips="1" connect="1" arrows="1" fold="1" page="1" pageScale="1" pageWidth="850" pageHeight="1100" math="0" shadow="0">
      <root>
        <mxCell id="0" />
        <mxCell id="1" parent="0" />
        <mxCell id="Kz1aP4Pa6J0rWRjs9dLA-9" style="edgeStyle=orthogonalEdgeStyle;rounded=0;orthogonalLoop=1;jettySize=auto;html=1;exitX=1.006;exitY=0.875;exitDx=0;exitDy=0;entryX=0;entryY=0.75;entryDx=0;entryDy=0;exitPerimeter=0;strokeWidth=3;endSize=22;startSize=22;" edge="1" parent="1" source="Y2plyGc3YhhyIuzBEEBD-2" target="Kz1aP4Pa6J0rWRjs9dLA-2">
          <mxGeometry relative="1" as="geometry" />
        </mxCell>
        <mxCell id="Kz1aP4Pa6J0rWRjs9dLA-17" value="&lt;font style=&quot;font-size: 32px;&quot; face=&quot;Times New Roman&quot;&gt;Browse what &lt;br&gt;feature to run&amp;nbsp;&lt;/font&gt;" style="edgeLabel;html=1;align=center;verticalAlign=middle;resizable=0;points=[];fontSize=11;fontFamily=Helvetica;fontColor=default;" vertex="1" connectable="0" parent="Kz1aP4Pa6J0rWRjs9dLA-9">
          <mxGeometry x="-0.0986" y="-2" relative="1" as="geometry">
            <mxPoint x="45" as="offset" />
          </mxGeometry>
        </mxCell>
        <mxCell id="Y2plyGc3YhhyIuzBEEBD-2" value="&lt;font face=&quot;Times New Roman&quot; style=&quot;font-size: 60px;&quot;&gt;User&lt;/font&gt;" style="rounded=1;whiteSpace=wrap;html=1;absoluteArcSize=1;arcSize=14;strokeWidth=3;" parent="1" vertex="1">
          <mxGeometry x="260" y="1630" width="337" height="263.5" as="geometry" />
        </mxCell>
        <mxCell id="Kz1aP4Pa6J0rWRjs9dLA-1" value="&lt;font style=&quot;font-size: 30px;&quot;&gt;1.0&lt;/font&gt;" style="swimlane;childLayout=stackLayout;horizontal=1;startSize=50;horizontalStack=0;rounded=1;fontSize=14;fontStyle=0;strokeWidth=2;resizeParent=0;resizeLast=1;shadow=0;dashed=0;align=center;arcSize=4;whiteSpace=wrap;html=1;fillColor=#cccccc;strokeColor=#36393d;fontFamily=Times New Roman;" vertex="1" parent="1">
          <mxGeometry x="1100" y="1630" width="370" height="290" as="geometry" />
        </mxCell>
        <mxCell id="Kz1aP4Pa6J0rWRjs9dLA-2" value="&lt;div style=&quot;&quot;&gt;&lt;br&gt;&lt;/div&gt;&lt;div style=&quot;&quot;&gt;&lt;br&gt;&lt;/div&gt;&lt;div style=&quot;&quot;&gt;&lt;br&gt;&lt;/div&gt;&lt;div style=&quot;&quot;&gt;&lt;br&gt;&lt;/div&gt;&lt;div style=&quot;&quot;&gt;&lt;br&gt;&lt;/div&gt;&lt;div style=&quot;&quot;&gt;&lt;span style=&quot;background-color: initial;&quot;&gt;&lt;font style=&quot;font-size: 45px;&quot;&gt;Homepage&lt;/font&gt;&lt;/span&gt;&lt;/div&gt;" style="align=center;strokeColor=none;fillColor=none;spacingLeft=4;fontSize=12;verticalAlign=top;resizable=0;rotatable=0;part=1;html=1;fontFamily=Times New Roman;" vertex="1" parent="Kz1aP4Pa6J0rWRjs9dLA-1">
          <mxGeometry y="50" width="370" height="240" as="geometry" />
        </mxCell>
        <mxCell id="Kz1aP4Pa6J0rWRjs9dLA-4" value="&lt;font style=&quot;font-size: 30px;&quot;&gt;2.0&lt;/font&gt;" style="swimlane;childLayout=stackLayout;horizontal=1;startSize=50;horizontalStack=0;rounded=1;fontSize=14;fontStyle=0;strokeWidth=2;resizeParent=0;resizeLast=1;shadow=0;dashed=0;align=center;arcSize=4;whiteSpace=wrap;html=1;fillColor=#cccccc;strokeColor=#36393d;fontFamily=Times New Roman;" vertex="1" parent="1">
          <mxGeometry x="1100" y="2220" width="370" height="290" as="geometry" />
        </mxCell>
        <mxCell id="Kz1aP4Pa6J0rWRjs9dLA-5" value="&lt;div style=&quot;&quot;&gt;&lt;br&gt;&lt;/div&gt;&lt;div style=&quot;&quot;&gt;&lt;br&gt;&lt;/div&gt;&lt;div style=&quot;&quot;&gt;&lt;br&gt;&lt;/div&gt;&lt;div style=&quot;&quot;&gt;&lt;br&gt;&lt;/div&gt;&lt;div style=&quot;&quot;&gt;&lt;br&gt;&lt;/div&gt;&lt;div style=&quot;&quot;&gt;&lt;span style=&quot;font-size: 45px;&quot;&gt;Features&lt;/span&gt;&lt;/div&gt;" style="align=center;strokeColor=none;fillColor=none;spacingLeft=4;fontSize=12;verticalAlign=top;resizable=0;rotatable=0;part=1;html=1;fontFamily=Times New Roman;" vertex="1" parent="Kz1aP4Pa6J0rWRjs9dLA-4">
          <mxGeometry y="50" width="370" height="240" as="geometry" />
        </mxCell>
        <mxCell id="Kz1aP4Pa6J0rWRjs9dLA-8" value="&lt;font style=&quot;font-size: 32px;&quot; face=&quot;Times New Roman&quot;&gt;Database&lt;/font&gt;" style="shape=dataStorage;whiteSpace=wrap;html=1;fixedSize=1;strokeWidth=3;" vertex="1" parent="1">
          <mxGeometry x="1095" y="2810" width="380" height="123.25" as="geometry" />
        </mxCell>
        <mxCell id="Kz1aP4Pa6J0rWRjs9dLA-12" style="edgeStyle=orthogonalEdgeStyle;rounded=0;orthogonalLoop=1;jettySize=auto;html=1;entryX=1.006;entryY=0.157;entryDx=0;entryDy=0;strokeWidth=3;endSize=22;startSize=22;exitX=-0.001;exitY=0.14;exitDx=0;exitDy=0;exitPerimeter=0;entryPerimeter=0;" edge="1" parent="1" source="Kz1aP4Pa6J0rWRjs9dLA-1" target="Y2plyGc3YhhyIuzBEEBD-2">
          <mxGeometry relative="1" as="geometry">
            <mxPoint x="1100" y="1671" as="sourcePoint" />
            <mxPoint x="769" y="1671" as="targetPoint" />
          </mxGeometry>
        </mxCell>
        <mxCell id="Kz1aP4Pa6J0rWRjs9dLA-18" value="&lt;font style=&quot;font-size: 32px;&quot; face=&quot;Times New Roman&quot;&gt;Information about &lt;br&gt;the feature selected&lt;/font&gt;" style="edgeLabel;html=1;align=center;verticalAlign=middle;resizable=0;points=[];fontSize=11;fontFamily=Helvetica;fontColor=default;" vertex="1" connectable="0" parent="Kz1aP4Pa6J0rWRjs9dLA-12">
          <mxGeometry x="0.5112" relative="1" as="geometry">
            <mxPoint x="66" y="-1" as="offset" />
          </mxGeometry>
        </mxCell>
        <mxCell id="Kz1aP4Pa6J0rWRjs9dLA-13" style="edgeStyle=orthogonalEdgeStyle;shape=connector;rounded=0;orthogonalLoop=1;jettySize=auto;html=1;exitX=0.161;exitY=0.992;exitDx=0;exitDy=0;entryX=0.161;entryY=0;entryDx=0;entryDy=0;entryPerimeter=0;labelBackgroundColor=default;strokeColor=default;strokeWidth=3;fontFamily=Helvetica;fontSize=11;fontColor=default;endArrow=classic;endSize=22;exitPerimeter=0;" edge="1" parent="1" source="Kz1aP4Pa6J0rWRjs9dLA-2" target="Kz1aP4Pa6J0rWRjs9dLA-4">
          <mxGeometry relative="1" as="geometry" />
        </mxCell>
        <mxCell id="Kz1aP4Pa6J0rWRjs9dLA-20" value="&lt;font style=&quot;font-size: 32px;&quot; face=&quot;Times New Roman&quot;&gt;User Selected&lt;br&gt;Feature&lt;br&gt;&lt;/font&gt;" style="edgeLabel;html=1;align=center;verticalAlign=middle;resizable=0;points=[];fontSize=11;fontFamily=Helvetica;fontColor=default;" vertex="1" connectable="0" parent="Kz1aP4Pa6J0rWRjs9dLA-13">
          <mxGeometry x="0.225" y="-3" relative="1" as="geometry">
            <mxPoint y="2" as="offset" />
          </mxGeometry>
        </mxCell>
        <mxCell id="Kz1aP4Pa6J0rWRjs9dLA-14" style="edgeStyle=orthogonalEdgeStyle;shape=connector;rounded=0;orthogonalLoop=1;jettySize=auto;html=1;exitX=0.84;exitY=0.005;exitDx=0;exitDy=0;entryX=0.84;entryY=1.002;entryDx=0;entryDy=0;entryPerimeter=0;labelBackgroundColor=default;strokeColor=default;strokeWidth=3;fontFamily=Helvetica;fontSize=11;fontColor=default;endArrow=classic;endSize=22;exitPerimeter=0;" edge="1" parent="1" source="Kz1aP4Pa6J0rWRjs9dLA-4" target="Kz1aP4Pa6J0rWRjs9dLA-2">
          <mxGeometry relative="1" as="geometry">
            <mxPoint x="1410" y="2222" as="sourcePoint" />
            <mxPoint x="1410" y="1920" as="targetPoint" />
          </mxGeometry>
        </mxCell>
        <mxCell id="Kz1aP4Pa6J0rWRjs9dLA-24" value="&lt;font style=&quot;font-size: 32px;&quot; face=&quot;Times New Roman&quot;&gt;Display Information&lt;/font&gt;" style="edgeLabel;html=1;align=center;verticalAlign=middle;resizable=0;points=[];fontSize=11;fontFamily=Helvetica;fontColor=default;" vertex="1" connectable="0" parent="Kz1aP4Pa6J0rWRjs9dLA-14">
          <mxGeometry x="0.3785" y="-3" relative="1" as="geometry">
            <mxPoint y="1" as="offset" />
          </mxGeometry>
        </mxCell>
        <mxCell id="Kz1aP4Pa6J0rWRjs9dLA-15" style="edgeStyle=orthogonalEdgeStyle;shape=connector;rounded=0;orthogonalLoop=1;jettySize=auto;html=1;exitX=0.161;exitY=0.992;exitDx=0;exitDy=0;entryX=0.161;entryY=0;entryDx=0;entryDy=0;entryPerimeter=0;labelBackgroundColor=default;strokeColor=default;strokeWidth=3;fontFamily=Times New Roman;fontSize=32;fontColor=default;endArrow=classic;endSize=22;exitPerimeter=0;" edge="1" parent="1">
          <mxGeometry relative="1" as="geometry">
            <mxPoint x="1158" y="2508" as="sourcePoint" />
            <mxPoint x="1158" y="2810" as="targetPoint" />
          </mxGeometry>
        </mxCell>
        <mxCell id="Kz1aP4Pa6J0rWRjs9dLA-22" value="&lt;font style=&quot;font-size: 32px;&quot; face=&quot;Times New Roman&quot;&gt;Database query&amp;nbsp;&lt;br&gt;on information needed&lt;/font&gt;" style="edgeLabel;html=1;align=center;verticalAlign=middle;resizable=0;points=[];fontSize=11;fontFamily=Helvetica;fontColor=default;" vertex="1" connectable="0" parent="Kz1aP4Pa6J0rWRjs9dLA-15">
          <mxGeometry x="-0.3245" y="-4" relative="1" as="geometry">
            <mxPoint y="80" as="offset" />
          </mxGeometry>
        </mxCell>
        <mxCell id="Kz1aP4Pa6J0rWRjs9dLA-16" style="edgeStyle=orthogonalEdgeStyle;shape=connector;rounded=0;orthogonalLoop=1;jettySize=auto;html=1;exitX=0.84;exitY=0.005;exitDx=0;exitDy=0;labelBackgroundColor=default;strokeColor=default;strokeWidth=3;fontFamily=Helvetica;fontSize=11;fontColor=default;endArrow=classic;endSize=22;exitPerimeter=0;" edge="1" parent="1">
          <mxGeometry relative="1" as="geometry">
            <mxPoint x="1410" y="2811" as="sourcePoint" />
            <mxPoint x="1410" y="2510" as="targetPoint" />
          </mxGeometry>
        </mxCell>
        <mxCell id="Kz1aP4Pa6J0rWRjs9dLA-23" value="&lt;font style=&quot;font-size: 32px;&quot; face=&quot;Times New Roman&quot;&gt;Information needed&amp;nbsp;&lt;br&gt;query for display&lt;/font&gt;" style="edgeLabel;html=1;align=center;verticalAlign=middle;resizable=0;points=[];fontSize=11;fontFamily=Helvetica;fontColor=default;" vertex="1" connectable="0" parent="Kz1aP4Pa6J0rWRjs9dLA-16">
          <mxGeometry x="0.2957" y="-6" relative="1" as="geometry">
            <mxPoint y="-5" as="offset" />
          </mxGeometry>
        </mxCell>
      </root>
    </mxGraphModel>
  </diagram>
</mxfile>
